<mxfile host="app.diagrams.net" modified="2024-02-11T07:35:55.928Z" agent="Mozilla/5.0 (Windows NT 10.0; Win64; x64) AppleWebKit/537.36 (KHTML, like Gecko) Chrome/121.0.0.0 Safari/537.36" etag="1UZMw8MMXA9LJXYS0t7L" version="23.1.2" type="gitlab">
  <diagram name="Page-1" id="03018318-947c-dd8e-b7a3-06fadd420f32">
    <mxGraphModel dx="1235" dy="655" grid="1" gridSize="10" guides="1" tooltips="1" connect="1" arrows="1" fold="1" page="1" pageScale="1" pageWidth="1100" pageHeight="850" background="#ffffff" math="0" shadow="0">
      <root>
        <mxCell id="0" />
        <mxCell id="1" parent="0" />
        <mxCell id="677b7b8949515195-1" value="" style="whiteSpace=wrap;html=1;rounded=0;shadow=0;labelBackgroundColor=none;strokeColor=#000000;strokeWidth=1;fillColor=none;fontFamily=Verdana;fontSize=12;fontColor=#000000;align=center;comic=1;" parent="1" vertex="1">
          <mxGeometry x="20" y="20" width="1060" height="810" as="geometry" />
        </mxCell>
        <mxCell id="677b7b8949515195-2" value="LOGO" style="whiteSpace=wrap;html=1;rounded=0;shadow=0;labelBackgroundColor=none;strokeWidth=1;fontFamily=Verdana;fontSize=28;align=center;comic=1;" parent="1" vertex="1">
          <mxGeometry x="464" y="180" width="190" height="50" as="geometry" />
        </mxCell>
        <mxCell id="677b7b8949515195-9" value="" style="line;strokeWidth=1;html=1;rounded=0;shadow=0;labelBackgroundColor=none;fillColor=none;fontFamily=Verdana;fontSize=14;fontColor=#000000;align=center;comic=1;" parent="1" vertex="1">
          <mxGeometry x="20" y="140" width="1060" height="10" as="geometry" />
        </mxCell>
        <mxCell id="677b7b8949515195-10" value="" style="whiteSpace=wrap;html=1;rounded=0;shadow=0;labelBackgroundColor=none;strokeWidth=1;fillColor=none;fontFamily=Verdana;fontSize=12;align=center;comic=1;" parent="1" vertex="1">
          <mxGeometry x="30" y="40" width="1040" height="50" as="geometry" />
        </mxCell>
        <mxCell id="677b7b8949515195-11" value="Home" style="text;html=1;points=[];align=left;verticalAlign=top;spacingTop=-4;fontSize=14;fontFamily=Verdana" parent="1" vertex="1">
          <mxGeometry x="40" y="55" width="60" height="20" as="geometry" />
        </mxCell>
        <mxCell id="677b7b8949515195-12" value="History" style="text;html=1;points=[];align=left;verticalAlign=top;spacingTop=-4;fontSize=14;fontFamily=Verdana" parent="1" vertex="1">
          <mxGeometry x="190" y="55" width="60" height="20" as="geometry" />
        </mxCell>
        <mxCell id="8MxXZiBAqhEL92ki6RWF-2" value="Select file:" style="text;html=1;points=[];align=left;verticalAlign=top;spacingTop=-4;fontSize=14;fontFamily=Verdana" parent="1" vertex="1">
          <mxGeometry x="280" y="283" width="60" height="20" as="geometry" />
        </mxCell>
        <mxCell id="8MxXZiBAqhEL92ki6RWF-16" value="&lt;b&gt;Submit&lt;/b&gt;" style="rounded=1;fillColor=#dae8fc;align=center;strokeColor=#6c8ebf;html=1;whiteSpace=wrap;fontSize=12;sketch=0;" parent="1" vertex="1">
          <mxGeometry x="507" y="420" width="103" height="33" as="geometry" />
        </mxCell>
        <mxCell id="LQenkPKNPlkYQLWToqc9-1" value="Account" style="text;html=1;points=[];align=left;verticalAlign=top;spacingTop=-4;fontSize=14;fontFamily=Verdana" parent="1" vertex="1">
          <mxGeometry x="970" y="55" width="60" height="20" as="geometry" />
        </mxCell>
        <mxCell id="v1YQOOrLBLwvQyKXJr1H-19" value="" style="rounded=0;whiteSpace=wrap;html=1;" parent="1" vertex="1">
          <mxGeometry x="370" y="283" width="90" height="20" as="geometry" />
        </mxCell>
        <mxCell id="ua32lebNh5KQFr7hFOOb-1" value="Bulk" style="text;html=1;points=[];align=left;verticalAlign=top;spacingTop=-4;fontSize=14;fontFamily=Verdana" vertex="1" parent="1">
          <mxGeometry x="110" y="55" width="60" height="20" as="geometry" />
        </mxCell>
        <mxCell id="ua32lebNh5KQFr7hFOOb-2" value="" style="ellipse;whiteSpace=wrap;html=1;aspect=fixed;" vertex="1" parent="1">
          <mxGeometry x="330" y="360" width="10" height="10" as="geometry" />
        </mxCell>
        <mxCell id="ua32lebNh5KQFr7hFOOb-3" value="" style="ellipse;whiteSpace=wrap;html=1;aspect=fixed;" vertex="1" parent="1">
          <mxGeometry x="330" y="340" width="10" height="10" as="geometry" />
        </mxCell>
        <mxCell id="ua32lebNh5KQFr7hFOOb-4" value="Model 1" style="text;html=1;points=[];align=left;verticalAlign=top;spacingTop=-4;fontSize=14;fontFamily=Verdana" vertex="1" parent="1">
          <mxGeometry x="350" y="335" width="60" height="20" as="geometry" />
        </mxCell>
        <mxCell id="ua32lebNh5KQFr7hFOOb-5" value="Model 2" style="text;html=1;points=[];align=left;verticalAlign=top;spacingTop=-4;fontSize=14;fontFamily=Verdana" vertex="1" parent="1">
          <mxGeometry x="350" y="355" width="60" height="20" as="geometry" />
        </mxCell>
        <mxCell id="ua32lebNh5KQFr7hFOOb-6" value="" style="endArrow=none;dashed=1;html=1;rounded=0;entryX=0.972;entryY=0.753;entryDx=0;entryDy=0;entryPerimeter=0;" edge="1" parent="1">
          <mxGeometry width="50" height="50" relative="1" as="geometry">
            <mxPoint x="189.68" y="500.07" as="sourcePoint" />
            <mxPoint x="970.0000000000002" y="500.0000000000003" as="targetPoint" />
          </mxGeometry>
        </mxCell>
        <mxCell id="ua32lebNh5KQFr7hFOOb-9" value="" style="whiteSpace=wrap;html=1;aspect=fixed;" vertex="1" parent="1">
          <mxGeometry x="494" y="550" width="130" height="130" as="geometry" />
        </mxCell>
        <mxCell id="ua32lebNh5KQFr7hFOOb-10" value="Prediction: Lettuce" style="text;html=1;points=[];align=left;verticalAlign=top;spacingTop=-4;fontSize=14;fontFamily=Verdana" vertex="1" parent="1">
          <mxGeometry x="490" y="710" width="60" height="20" as="geometry" />
        </mxCell>
      </root>
    </mxGraphModel>
  </diagram>
</mxfile>
